<svg width="54" height="54" viewBox="0 0 54 54" fill="none" xmlns="http://www.w3.org/2000/svg">
<path d="M11.2937 39.7896H13.875V35.4146H40.125V39.7896H42.7063V29.3683C42.7063 28.0578 42.295 26.9533 41.4725 26.055C40.6519 25.1547 39.6049 24.6433 38.3313 24.5208V20.7175C38.3313 19.3758 37.8811 18.2549 36.9808 17.3546C36.0825 16.4563 34.9615 16.0071 33.6179 16.0071H20.3821C19.0404 16.0071 17.9194 16.4563 17.0192 17.3546C16.1189 18.2549 15.6687 19.3758 15.6687 20.7175V24.5208C14.3951 24.6433 13.3471 25.1547 12.5246 26.055C11.704 26.9533 11.2937 28.0578 11.2937 29.3683V39.7896ZM13.875 32.8333V29.3683C13.875 28.6878 14.0986 28.1229 14.5458 27.6737C14.9969 27.2246 15.5628 27 16.2433 27H37.7567C38.4372 27 39.0021 27.2236 39.4512 27.6708C39.9004 28.1219 40.125 28.6878 40.125 29.3683V32.8333H13.875ZM18.25 24.4188V20.3821C18.25 19.8571 18.4182 19.4264 18.7546 19.09C19.091 18.7536 19.5207 18.5854 20.0438 18.5854H33.9563C34.4793 18.5854 34.909 18.7536 35.2454 19.09C35.5818 19.4264 35.75 19.8571 35.75 20.3821V24.4188H18.25ZM5.46042 53.25C4.11875 53.25 2.99875 52.8008 2.10042 51.9025C1.20014 51.0022 0.75 49.8813 0.75 48.5396V5.46042C0.75 4.11875 1.20014 2.99875 2.10042 2.10042C2.99875 1.20014 4.11875 0.75 5.46042 0.75H48.5396C49.8813 0.75 51.0013 1.20014 51.8996 2.10042C52.7999 2.99875 53.25 4.11875 53.25 5.46042V48.5396C53.25 49.8813 52.8008 51.0013 51.9025 51.8996C51.0022 52.7999 49.8813 53.25 48.5396 53.25H5.46042ZM5.46042 50.3333H48.5396C48.9868 50.3333 49.3981 50.1467 49.7733 49.7733C50.1467 49.3981 50.3333 48.9868 50.3333 48.5396V5.46042C50.3333 5.01319 50.1467 4.60194 49.7733 4.22667C49.3981 3.85333 48.9868 3.66667 48.5396 3.66667H5.46042C5.01319 3.66667 4.60194 3.85333 4.22667 4.22667C3.85333 4.60194 3.66667 5.01319 3.66667 5.46042V48.5396C3.66667 48.9868 3.85333 49.3981 4.22667 49.7733C4.60194 50.1467 5.01319 50.3333 5.46042 50.3333Z" fill="black"/>
</svg>
