<svg width="35" height="52" viewBox="0 0 35 52" fill="none" xmlns="http://www.w3.org/2000/svg">
<path d="M10.5437 39.0396H13.125V34.6646H39.375V39.0396H41.9563V28.6183C41.9563 27.3078 41.545 26.2033 40.7225 25.305C39.9019 24.4047 38.8549 23.8933 37.5813 23.7708V19.9675C37.5813 18.6258 37.1311 17.5049 36.2308 16.6046C35.3325 15.7063 34.2115 15.2571 32.8679 15.2571H19.6321C18.2904 15.2571 17.1694 15.7063 16.2692 16.6046C15.3689 17.5049 14.9187 18.6258 14.9187 19.9675V23.7708C13.6451 23.8933 12.5971 24.4047 11.7746 25.305C10.954 26.2033 10.5437 27.3078 10.5437 28.6183V39.0396ZM13.125 32.0833V28.6183C13.125 27.9378 13.3486 27.3729 13.7958 26.9237C14.2469 26.4746 14.8128 26.25 15.4933 26.25H37.0067C37.6872 26.25 38.2521 26.4736 38.7012 26.9208C39.1504 27.3719 39.375 27.9378 39.375 28.6183V32.0833H13.125ZM17.5 23.6688V19.6321C17.5 19.1071 17.6682 18.6764 18.0046 18.34C18.341 18.0036 18.7707 17.8354 19.2938 17.8354H33.2063C33.7293 17.8354 34.159 18.0036 34.4954 18.34C34.8318 18.6764 35 19.1071 35 19.6321V23.6688H17.5ZM4.71042 52.5C3.36875 52.5 2.24875 52.0508 1.35042 51.1525C0.450139 50.2522 0 49.1313 0 47.7896V4.71042C0 3.36875 0.450139 2.24875 1.35042 1.35042C2.24875 0.450139 3.36875 0 4.71042 0H47.7896C49.1313 0 50.2513 0.450139 51.1496 1.35042C52.0499 2.24875 52.5 3.36875 52.5 4.71042V47.7896C52.5 49.1313 52.0508 50.2513 51.1525 51.1496C50.2522 52.0499 49.1313 52.5 47.7896 52.5H4.71042ZM4.71042 49.5833H47.7896C48.2368 49.5833 48.6481 49.3967 49.0233 49.0233C49.3967 48.6481 49.5833 48.2368 49.5833 47.7896V4.71042C49.5833 4.26319 49.3967 3.85194 49.0233 3.47667C48.6481 3.10333 48.2368 2.91667 47.7896 2.91667H4.71042C4.26319 2.91667 3.85194 3.10333 3.47667 3.47667C3.10333 3.85194 2.91667 4.26319 2.91667 4.71042V47.7896C2.91667 48.2368 3.10333 48.6481 3.47667 49.0233C3.85194 49.3967 4.26319 49.5833 4.71042 49.5833Z" fill="black"/>
</svg>
